<svg xmlns="http://www.w3.org/2000/svg" aria-hidden="true" class="as-svgicon as-svgicon-financing as-svgicon-elevated as-svgicon-financingelevated" viewBox="0 0 42 56"><path fill="none" d="M0 0h42v56H0z"/><path fill="#6cca4e" d="M37 12H5a5.006 5.006 0 0 0-5 5v22a5.006 5.006 0 0 0 5 5h32a5.006 5.006 0 0 0 5-5V17a5.006 5.006 0 0 0-5-5ZM5 14h32a3 3 0 0 1 3 3v3H2v-3a3 3 0 0 1 3-3Zm32 28H5a3 3 0 0 1-3-3V24h38v15a3 3 0 0 1-3 3ZM6 33.5v-4A1.5 1.5 0 0 1 7.5 28h6a1.5 1.5 0 0 1 1.5 1.5v4a1.5 1.5 0 0 1-1.5 1.5h-6A1.5 1.5 0 0 1 6 33.5Z"/></svg>