<svg width="35" height="35" aria-hidden="true" class="as-svgicon as-svgicon-personalization as-svgicon-elevated as-svgicon-personalizationelevated"><path fill="none" d="M0 0h35v35H0z"/><path fill="#06c" d="M17.5 6.1A11.4 11.4 0 1 1 6.1 17.5 11.413 11.413 0 0 1 17.5 6.1m0-1.1A12.5 12.5 0 1 0 30 17.5 12.5 12.5 0 0 0 17.5 5zm3.77 11.312a1.213 1.213 0 0 0 .935-.454 1.808 1.808 0 0 0 0-2.269 1.213 1.213 0 0 0-.934-.454 1.2 1.2 0 0 0-.921.454 1.798 1.798 0 0 0 0 2.263 1.195 1.195 0 0 0 .92.46zm-7.554 0a1.245 1.245 0 0 0 .948-.46 1.764 1.764 0 0 0 .006-2.263 1.245 1.245 0 0 0-.954-.454 1.181 1.181 0 0 0-.914.454 1.831 1.831 0 0 0 0 2.27 1.181 1.181 0 0 0 .914.453zm11.973 2.216a.655.655 0 0 0-.641-.08 27.537 27.537 0 0 1-3.69.86 24.154 24.154 0 0 1-3.851.3 24.28 24.28 0 0 1-3.858-.3 26.98 26.98 0 0 1-3.684-.86.692.692 0 0 0-.66.08.608.608 0 0 0-.18.614 7.743 7.743 0 0 0 1.401 3.63 8.522 8.522 0 0 0 2.977 2.596 8.378 8.378 0 0 0 4.004.968 8.35 8.35 0 0 0 3.99-.968 8.585 8.585 0 0 0 2.984-2.596 7.598 7.598 0 0 0 1.395-3.63.638.638 0 0 0-.187-.614zm-1.482 2.83a23.869 23.869 0 0 1-3.317.7 24.667 24.667 0 0 1-3.383.234 24.863 24.863 0 0 1-3.384-.233 23.782 23.782 0 0 1-3.33-.701 6.213 6.213 0 0 1-.694-1.869 27.753 27.753 0 0 0 3.617.788 25.529 25.529 0 0 0 3.79.28 25.572 25.572 0 0 0 3.785-.28 27.179 27.179 0 0 0 3.61-.788 6.04 6.04 0 0 1-.694 1.868z"/></svg>