<svg width="35" height="35" aria-hidden="true" class="as-svgicon as-svgicon-applestore as-svgicon-base as-svgicon-applestorebase"><path fill="none" d="M0 0h35v35H0z"/><path d="M17.5 32.217a1.136 1.136 0 0 1-1-.576l-1.812-2.525c-.053-.087-.1-.116-.156-.116H10.5A4.5 4.5 0 0 1 6 24.5V10.518a4.5 4.5 0 0 1 4.5-4.5h14a4.5 4.5 0 0 1 4.5 4.5V24.5a4.5 4.5 0 0 1-4.5 4.5h-4.036a.149.149 0 0 0-.129.074l-1.867 2.609a1.108 1.108 0 0 1-.968.534zM10.5 7A3.519 3.519 0 0 0 7 10.518V24.5a3.5 3.5 0 0 0 3.5 3.5h4.036a1.151 1.151 0 0 1 1 .576l1.808 2.524c.128.213.211.17.284.042l1.868-2.61a1.125 1.125 0 0 1 .968-.532H24.5a3.5 3.5 0 0 0 3.5-3.5V10.518A3.519 3.519 0 0 0 24.5 7z"/><path d="M21.35 14.635a2.326 2.326 0 0 0-1.078 1.94 2.215 2.215 0 0 0 1.353 2.051 4.733 4.733 0 0 1-.693 1.444c-.429.617-.9 1.246-1.584 1.246s-.858-.408-1.661-.408c-.77 0-1.045.419-1.672.419s-1.078-.573-1.584-1.29a6.312 6.312 0 0 1-1.056-3.363 2.719 2.719 0 0 1 2.541-3.021c.682 0 1.232.441 1.65.441s1.023-.463 1.782-.463a2.348 2.348 0 0 1 2.002 1.004zm-3.729-1.114c-.055 0-.1-.011-.143-.011 0-.033-.011-.11-.011-.187a2.26 2.26 0 0 1 .561-1.378 2.19 2.19 0 0 1 1.485-.772 1.074 1.074 0 0 1 .011.2A2.329 2.329 0 0 1 19 12.794a1.967 1.967 0 0 1-1.379.727z"/></svg>