<svg width="49" height="56" aria-hidden="true" class="as-svgicon as-svgicon-boxtruck as-svgicon-elevated"><path fill="none" d="M0 0h49v56H0z"/><path fill="#6CCA4E" d="m47.845 27.501-6.676-7.129A4.37 4.37 0 0 0 37.684 19H33v-4a5 5 0 0 0-5-5H5a5 5 0 0 0-5 5v21a5 5 0 0 0 5 5h1.15a5.622 5.622 0 0 0 11.2 0h13.8a5.622 5.622 0 0 0 11.2 0h2.644C47.54 41 49 39.59 49 37.134v-6.751a4.15 4.15 0 0 0-1.155-2.882zM15.325 41a3.607 3.607 0 0 1-7.15 0 3.208 3.208 0 0 1 .285-2 3.625 3.625 0 0 1 6.915 1.5 3.555 3.555 0 0 1-.05.5zM31 39H17.166a5.619 5.619 0 0 0-10.833 0H5a3.003 3.003 0 0 1-3-3V15a3.003 3.003 0 0 1 3-3h23a3.003 3.003 0 0 1 3 3zm9.325 2a3.607 3.607 0 0 1-7.15 0 3.208 3.208 0 0 1 .285-2 3.625 3.625 0 0 1 6.915 1.5 3.555 3.555 0 0 1-.05.5zM47 37.134C47 38.46 46.419 39 44.993 39h-2.827A5.613 5.613 0 0 0 33 36.316V21h4.684a2.43 2.43 0 0 1 2.03.744l6.687 7.14A2.18 2.18 0 0 1 47 30.384zm-3.391-8.021A1.212 1.212 0 0 1 44 30h-7.777A1.143 1.143 0 0 1 35 28.768V23h2.413a1.682 1.682 0 0 1 1.337.624z"/></svg>