<svg xmlns="http://www.w3.org/2000/svg" aria-hidden="true" class="as-svgicon as-svgicon-financing as-svgicon-elevated as-svgicon-financingelevated" viewBox="0 0 43 56"><path fill="none" d="M0 0h43v56H0z"/><path fill="#ab45fb" d="M38.5 27a1 1 0 0 0-1 1v11a5.006 5.006 0 0 1-5 5h-22a5.006 5.006 0 0 1-5-5v-3.836l1.543 1.543a1 1 0 1 0 1.414-1.414l-3.25-3.25a1 1 0 0 0-1.414 0l-3.25 3.25a1 1 0 1 0 1.414 1.414L3.5 35.164V39a7.008 7.008 0 0 0 7 7h22a7.008 7.008 0 0 0 7-7V28a1 1 0 0 0-1-1z"/><path fill="#ab45fb" d="M28.172 32.715a.31.31 0 0 0-.352.352q0 .334.352.334H30.8a.3.3 0 0 0 .343-.334.307.307 0 0 0-.343-.352z"/><path fill="#ab45fb" d="M30.602 21.32a1.92 1.92 0 0 0-1.402-.47H13.45a1.94 1.94 0 0 0-1.376.47 1.811 1.811 0 0 0-.505 1.393v10.433h-.924a.95.95 0 0 0-.704.294 1.009 1.009 0 0 0 0 1.416.954.954 0 0 0 .704.294h20.744a1.968 1.968 0 0 0 1.415-.519 1.783 1.783 0 0 0 .545-1.353v-8.376a1.783 1.783 0 0 0-.545-1.354 1.968 1.968 0 0 0-1.415-.518h-.308v-.317a1.869 1.869 0 0 0-.48-1.393zm-4.997 3.582v8.244h-12.62V23.109a.746.746 0 0 1 .843-.844h14.994a.86.86 0 0 1 .633.211.827.827 0 0 1 .2.554h-2.09a1.968 1.968 0 0 0-1.415.518 1.783 1.783 0 0 0-.545 1.354zm5.538-.334v-.352h.096a.945.945 0 0 1 .677.233.835.835 0 0 1 .246.637v8.007a.835.835 0 0 1-.246.637.945.945 0 0 1-.677.233h-3.515a.958.958 0 0 1-.686-.233.835.835 0 0 1-.246-.637v-8.007a.835.835 0 0 1 .246-.637.958.958 0 0 1 .686-.233h.096v.352a.53.53 0 0 0 .14.378.483.483 0 0 0 .37.15h2.303a.483.483 0 0 0 .369-.15.53.53 0 0 0 .14-.378z"/><path fill="#ab45fb" d="M42.457 19.293a1 1 0 0 0-1.414 0L39.5 20.836V17a7.008 7.008 0 0 0-7-7h-22a7.008 7.008 0 0 0-7 7v11a1 1 0 0 0 2 0V17a5.006 5.006 0 0 1 5-5h22a5.006 5.006 0 0 1 5 5v3.836l-1.543-1.543a1 1 0 0 0-1.414 1.414l3.25 3.25a1 1 0 0 0 1.414 0l3.25-3.25a1 1 0 0 0 0-1.414z"/></svg>